<svg xmlns="http://www.w3.org/2000/svg" viewBox="0 0 187.937 93.954">
  <path id="Path_1" data-name="Path 1" d="M7.322,32.408V27.838H3.135v4.569H.6v2.8H3.135V44.2a3.9,3.9,0,0,0,.383,1.857,2.731,2.731,0,0,0,1.047,1.091,4.345,4.345,0,0,0,1.533.516,12.222,12.222,0,0,0,1.843.133q.619,0,1.268-.029a9.965,9.965,0,0,0,1.179-.118V44.406a5.869,5.869,0,0,1-.619.088q-.324.029-.678.029a2.049,2.049,0,0,1-1.415-.354,2.049,2.049,0,0,1-.354-1.415V35.208h3.066v-2.8ZM12.392,26.6V47.649h4.186V39.66a5.654,5.654,0,0,1,.766-3.346A2.9,2.9,0,0,1,19.821,35.3a2.284,2.284,0,0,1,2.093.929,5.341,5.341,0,0,1,.59,2.815v8.608H26.69V38.274a12.284,12.284,0,0,0-.251-2.58,4.906,4.906,0,0,0-.87-1.975,4.087,4.087,0,0,0-1.7-1.268,7.11,7.11,0,0,0-2.756-.457,5.49,5.49,0,0,0-2.417.6,4.848,4.848,0,0,0-2.034,1.931h-.088V26.6ZM40.133,38.392h-6.81a4.8,4.8,0,0,1,.192-1,3.078,3.078,0,0,1,.56-1.061,3.171,3.171,0,0,1,1.061-.84,3.642,3.642,0,0,1,1.666-.339,2.94,2.94,0,0,1,2.285.825A4.838,4.838,0,0,1,40.133,38.392Zm-6.81,2.653h11a10.76,10.76,0,0,0-.295-3.39,8.3,8.3,0,0,0-1.341-2.889,6.766,6.766,0,0,0-2.373-2.019,7.247,7.247,0,0,0-3.39-.752,7.894,7.894,0,0,0-3.169.619A7.368,7.368,0,0,0,29.7,36.859a8.889,8.889,0,0,0-.56,3.184,9.28,9.28,0,0,0,.545,3.243,7.364,7.364,0,0,0,1.548,2.535,6.743,6.743,0,0,0,2.447,1.636,8.7,8.7,0,0,0,3.243.575,7.984,7.984,0,0,0,4.422-1.179,7,7,0,0,0,2.712-3.921H40.369a2.629,2.629,0,0,1-1.12,1.341,4.292,4.292,0,0,1-4.894-.28A4.232,4.232,0,0,1,33.323,41.045Zm-20.489,35.2a9.3,9.3,0,0,1-.177,1.828,4.954,4.954,0,0,1-.59,1.577,3.135,3.135,0,0,1-1.106,1.105,3.32,3.32,0,0,1-1.725.413,3.111,3.111,0,0,1-1.666-.427,3.678,3.678,0,0,1-1.15-1.12,4.831,4.831,0,0,1-.663-1.577,7.761,7.761,0,0,1-.206-1.769,8.4,8.4,0,0,1,.192-1.813,4.822,4.822,0,0,1,.619-1.548A3.263,3.263,0,0,1,7.5,71.823a3.4,3.4,0,0,1,1.739-.413,3.24,3.24,0,0,1,1.71.413A3.4,3.4,0,0,1,12.053,72.9a4.431,4.431,0,0,1,.6,1.533A9.078,9.078,0,0,1,12.834,76.245Zm.059,5.719V83.91h3.98V62.861H12.687v7.665h-.059a4.494,4.494,0,0,0-1.931-1.7,5.993,5.993,0,0,0-2.58-.575,6.27,6.27,0,0,0-2.948.663,6.321,6.321,0,0,0-2.108,1.754,7.7,7.7,0,0,0-1.268,2.521,10.288,10.288,0,0,0-.427,2.963,10.952,10.952,0,0,0,.427,3.066,8.161,8.161,0,0,0,1.268,2.609A6.036,6.036,0,0,0,5.2,83.63a6.517,6.517,0,0,0,3.007.663,6.421,6.421,0,0,0,2.7-.545,4.318,4.318,0,0,0,1.931-1.784Zm17.393-7.311h-6.81a4.805,4.805,0,0,1,.192-1,3.077,3.077,0,0,1,.56-1.061,3.171,3.171,0,0,1,1.061-.84,3.642,3.642,0,0,1,1.666-.339,2.94,2.94,0,0,1,2.285.825A4.838,4.838,0,0,1,30.287,74.653Zm-6.81,2.653h11a10.76,10.76,0,0,0-.295-3.39,8.3,8.3,0,0,0-1.341-2.889,6.766,6.766,0,0,0-2.373-2.019,7.247,7.247,0,0,0-3.39-.752,7.894,7.894,0,0,0-3.169.619,7.368,7.368,0,0,0-4.054,4.245,8.889,8.889,0,0,0-.56,3.184,9.28,9.28,0,0,0,.545,3.243,7.364,7.364,0,0,0,1.548,2.535,6.743,6.743,0,0,0,2.447,1.636,8.7,8.7,0,0,0,3.243.575A7.984,7.984,0,0,0,31.5,83.114a7,7,0,0,0,2.712-3.921H30.523a2.629,2.629,0,0,1-1.12,1.341,3.732,3.732,0,0,1-2.182.634,3.742,3.742,0,0,1-2.712-.914A4.232,4.232,0,0,1,23.477,77.306Zm16.715,1.651h-3.98a5.125,5.125,0,0,0,.693,2.55,5.059,5.059,0,0,0,1.621,1.636,6.847,6.847,0,0,0,2.255.884,12.629,12.629,0,0,0,2.594.265,12.971,12.971,0,0,0,2.55-.251,6.465,6.465,0,0,0,2.226-.87,4.629,4.629,0,0,0,2.182-4.157,3.547,3.547,0,0,0-.413-1.784,3.778,3.778,0,0,0-1.091-1.209,5.867,5.867,0,0,0-1.548-.781,17.679,17.679,0,0,0-1.784-.5q-.884-.206-1.739-.383a13.454,13.454,0,0,1-1.518-.4,3.182,3.182,0,0,1-1.076-.575,1.148,1.148,0,0,1-.413-.914,1.129,1.129,0,0,1,.236-.752,1.548,1.548,0,0,1,.575-.427,2.559,2.559,0,0,1,.752-.192,7.228,7.228,0,0,1,.766-.044,4.178,4.178,0,0,1,1.946.427,1.831,1.831,0,0,1,.914,1.636h3.98a5,5,0,0,0-.722-2.344,4.771,4.771,0,0,0-1.518-1.489,6.355,6.355,0,0,0-2.078-.8,12.075,12.075,0,0,0-2.4-.236,13.09,13.09,0,0,0-2.417.221,6.657,6.657,0,0,0-2.123.766,4.238,4.238,0,0,0-1.518,1.489,4.586,4.586,0,0,0-.575,2.417,3.258,3.258,0,0,0,.413,1.7,3.584,3.584,0,0,0,1.091,1.15,6.1,6.1,0,0,0,1.548.737q.87.28,1.784.486a25.02,25.02,0,0,1,3.493.943q1.253.472,1.253,1.415a1.549,1.549,0,0,1-.265.929,2.011,2.011,0,0,1-.663.59,3.159,3.159,0,0,1-.884.324,4.478,4.478,0,0,1-.929.1,4.789,4.789,0,0,1-1.194-.147,3.1,3.1,0,0,1-1.017-.457,2.447,2.447,0,0,1-.722-.8A2.3,2.3,0,0,1,40.192,78.957ZM57.084,66.31V62.861H52.9V66.31ZM52.9,68.668V83.91h4.186V68.668ZM67.491,80.313a2.965,2.965,0,0,1-1.621-.413,3.272,3.272,0,0,1-1.047-1.061,4.423,4.423,0,0,1-.56-1.459,8.322,8.322,0,0,1-.162-1.636,6.845,6.845,0,0,1,.192-1.636,4.04,4.04,0,0,1,.619-1.386,3.193,3.193,0,0,1,1.061-.958,3.069,3.069,0,0,1,1.518-.354,3.44,3.44,0,0,1,1.71.383,3.052,3.052,0,0,1,1.091,1.032,4.456,4.456,0,0,1,.59,1.489,8.644,8.644,0,0,1,.177,1.784,5.562,5.562,0,0,1-.221,1.577,4.178,4.178,0,0,1-.663,1.341,3.268,3.268,0,0,1-1.12.943A3.329,3.329,0,0,1,67.491,80.313Zm7.547,2.624V68.668h-3.98V70.7H71a4.553,4.553,0,0,0-1.9-1.887,5.892,5.892,0,0,0-2.638-.56,6.152,6.152,0,0,0-2.815.619,6.055,6.055,0,0,0-2.049,1.666,7.436,7.436,0,0,0-1.253,2.417,9.5,9.5,0,0,0-.427,2.845,11.6,11.6,0,0,0,.369,2.963,6.888,6.888,0,0,0,1.164,2.447,5.594,5.594,0,0,0,2.034,1.651,6.659,6.659,0,0,0,2.948.6,6.254,6.254,0,0,0,2.638-.575A4.145,4.145,0,0,0,71,81.109h.059v2a4.162,4.162,0,0,1-.781,2.683,3.039,3.039,0,0,1-2.58,1.061,4.127,4.127,0,0,1-1.975-.457,2.389,2.389,0,0,1-1.15-1.636H60.416a4.4,4.4,0,0,0,.722,2.226,5.216,5.216,0,0,0,1.592,1.518,7.258,7.258,0,0,0,2.123.87,9.749,9.749,0,0,0,2.285.28,10.3,10.3,0,0,0,4.186-.708,6.411,6.411,0,0,0,2.388-1.725,5.161,5.161,0,0,0,1.076-2.2A10.2,10.2,0,0,0,75.038,82.937ZM78.4,68.668V83.91h4.186V75.921a5.654,5.654,0,0,1,.766-3.346,2.9,2.9,0,0,1,2.476-1.017,2.284,2.284,0,0,1,2.093.929,5.341,5.341,0,0,1,.59,2.815V83.91H92.7V74.535a12.283,12.283,0,0,0-.251-2.58,4.906,4.906,0,0,0-.87-1.975,4.087,4.087,0,0,0-1.7-1.268,7.109,7.109,0,0,0-2.756-.457,5.967,5.967,0,0,0-2.594.6,4.8,4.8,0,0,0-2.064,1.931h-.088V68.668ZM12.392,110.295h4.1a5.564,5.564,0,0,0-2.314-4.348,6.964,6.964,0,0,0-2.241-1.076,9.555,9.555,0,0,0-2.609-.354,8.313,8.313,0,0,0-3.3.619,6.949,6.949,0,0,0-2.447,1.725,7.4,7.4,0,0,0-1.518,2.624,10.154,10.154,0,0,0-.516,3.287,8.536,8.536,0,0,0,.56,3.14,7.317,7.317,0,0,0,1.562,2.462A6.962,6.962,0,0,0,6.1,119.979a8.342,8.342,0,0,0,3.14.575,7.611,7.611,0,0,0,4.982-1.592,6.906,6.906,0,0,0,2.358-4.628H12.54a3.974,3.974,0,0,1-1.017,2.255,3.067,3.067,0,0,1-2.314.84,2.957,2.957,0,0,1-1.651-.442,3.3,3.3,0,0,1-1.076-1.135,5.2,5.2,0,0,1-.575-1.548,8.28,8.28,0,0,1-.177-1.68,8.635,8.635,0,0,1,.177-1.725,5.094,5.094,0,0,1,.6-1.592,3.631,3.631,0,0,1,1.106-1.179,2.94,2.94,0,0,1,1.68-.457A2.807,2.807,0,0,1,12.392,110.295Zm10.259,2.27a9.147,9.147,0,0,1,.177-1.8,4.588,4.588,0,0,1,.6-1.562,3.219,3.219,0,0,1,2.9-1.533,3.449,3.449,0,0,1,1.784.427,3.352,3.352,0,0,1,1.15,1.106,4.588,4.588,0,0,1,.6,1.562,9.147,9.147,0,0,1,.177,1.8,8.926,8.926,0,0,1-.177,1.784,4.751,4.751,0,0,1-.6,1.562,3.182,3.182,0,0,1-1.15,1.106,3.547,3.547,0,0,1-1.784.413,3.465,3.465,0,0,1-1.769-.413,3.219,3.219,0,0,1-1.135-1.106,4.751,4.751,0,0,1-.6-1.562A8.926,8.926,0,0,1,22.651,112.565Zm-4.186,0a9.235,9.235,0,0,0,.56,3.3,7.162,7.162,0,0,0,1.592,2.521,6.964,6.964,0,0,0,2.476,1.607,8.909,8.909,0,0,0,3.243.56,9.028,9.028,0,0,0,3.258-.56,6.938,6.938,0,0,0,2.491-1.607,7.162,7.162,0,0,0,1.592-2.521,9.235,9.235,0,0,0,.56-3.3,9.356,9.356,0,0,0-.56-3.317,6.942,6.942,0,0,0-4.083-4.157,8.821,8.821,0,0,0-3.258-.575,8.705,8.705,0,0,0-3.243.575,6.97,6.97,0,0,0-4.068,4.157A9.356,9.356,0,0,0,18.465,112.565Zm18.6-13.443v21.049h4.186V99.122Zm7.606,0v21.049h4.186V99.122Zm7.311,10.495a4.863,4.863,0,0,1,.737-2.447,5.019,5.019,0,0,1,1.651-1.562,7.194,7.194,0,0,1,2.255-.84,12.822,12.822,0,0,1,2.521-.251,17.083,17.083,0,0,1,2.329.162,7.124,7.124,0,0,1,2.152.634,4.24,4.24,0,0,1,1.592,1.312,3.666,3.666,0,0,1,.619,2.226v7.93a15.928,15.928,0,0,0,.118,1.975,3.571,3.571,0,0,0,.413,1.415H62.125a6.008,6.008,0,0,1-.192-.722,6.289,6.289,0,0,1-.1-.752,5.455,5.455,0,0,1-2.358,1.445,9.465,9.465,0,0,1-2.771.413,7.487,7.487,0,0,1-2.034-.265,4.658,4.658,0,0,1-1.651-.825,3.842,3.842,0,0,1-1.106-1.415,4.784,4.784,0,0,1-.4-2.034,4.444,4.444,0,0,1,.457-2.137,3.821,3.821,0,0,1,1.179-1.341,5.283,5.283,0,0,1,1.651-.752,17.63,17.63,0,0,1,1.872-.4q.943-.147,1.857-.236a11.166,11.166,0,0,0,1.621-.265,2.826,2.826,0,0,0,1.12-.516,1.132,1.132,0,0,0,.383-.988,2.221,2.221,0,0,0-.221-1.076,1.626,1.626,0,0,0-.59-.619,2.32,2.32,0,0,0-.855-.295,7,7,0,0,0-1.047-.074,3.177,3.177,0,0,0-1.946.531,2.369,2.369,0,0,0-.825,1.769Zm9.67,3.1a1.878,1.878,0,0,1-.663.368,6.779,6.779,0,0,1-.855.221q-.457.088-.958.147t-1,.147a7.556,7.556,0,0,0-.929.236,2.745,2.745,0,0,0-.8.4,1.892,1.892,0,0,0-.545.634,2.039,2.039,0,0,0-.206.973,1.969,1.969,0,0,0,.206.943,1.582,1.582,0,0,0,.56.6,2.364,2.364,0,0,0,.825.31,5.269,5.269,0,0,0,.973.088,3.7,3.7,0,0,0,1.916-.413,2.761,2.761,0,0,0,1-.988,3.158,3.158,0,0,0,.4-1.164,8,8,0,0,0,.074-.943Zm18.6-.147a8.017,8.017,0,0,1-.206,1.828,4.852,4.852,0,0,1-.649,1.562,3.4,3.4,0,0,1-1.106,1.076,3.412,3.412,0,0,1-3.2,0,3.347,3.347,0,0,1-1.12-1.076,4.852,4.852,0,0,1-.649-1.562,8.018,8.018,0,0,1-.206-1.828,8.151,8.151,0,0,1,.206-1.857,4.852,4.852,0,0,1,.649-1.562,3.347,3.347,0,0,1,1.12-1.076,3.412,3.412,0,0,1,3.2,0,3.4,3.4,0,0,1,1.106,1.076,4.852,4.852,0,0,1,.649,1.562A8.15,8.15,0,0,1,80.256,112.565ZM69.083,99.122v21.049h3.98v-1.946h.059a3.817,3.817,0,0,0,2,1.8,8.041,8.041,0,0,0,3.007.531,5.812,5.812,0,0,0,4.289-1.916,7.386,7.386,0,0,0,1.459-2.491,11.922,11.922,0,0,0,0-7.223,7.386,7.386,0,0,0-1.459-2.491,5.812,5.812,0,0,0-4.289-1.916,7.036,7.036,0,0,0-2.727.545,4.467,4.467,0,0,0-2.078,1.725h-.059V99.122ZM90.81,112.565a9.148,9.148,0,0,1,.177-1.8,4.588,4.588,0,0,1,.6-1.562,3.219,3.219,0,0,1,2.9-1.533,3.449,3.449,0,0,1,1.784.427,3.352,3.352,0,0,1,1.15,1.106,4.588,4.588,0,0,1,.6,1.562,9.146,9.146,0,0,1,.177,1.8,8.926,8.926,0,0,1-.177,1.784,4.751,4.751,0,0,1-.6,1.562,3.182,3.182,0,0,1-1.15,1.106,3.547,3.547,0,0,1-1.784.413,3.464,3.464,0,0,1-1.769-.413,3.219,3.219,0,0,1-1.135-1.106,4.752,4.752,0,0,1-.6-1.562A8.927,8.927,0,0,1,90.81,112.565Zm-4.186,0a9.235,9.235,0,0,0,.56,3.3,7.162,7.162,0,0,0,1.592,2.521,6.964,6.964,0,0,0,2.476,1.607,8.909,8.909,0,0,0,3.243.56,9.028,9.028,0,0,0,3.258-.56,6.938,6.938,0,0,0,2.491-1.607,7.162,7.162,0,0,0,1.592-2.521,9.235,9.235,0,0,0,.56-3.3,9.356,9.356,0,0,0-.56-3.317,6.942,6.942,0,0,0-4.083-4.157,8.821,8.821,0,0,0-3.258-.575,8.705,8.705,0,0,0-3.243.575,6.97,6.97,0,0,0-4.068,4.157A9.356,9.356,0,0,0,86.624,112.565Zm18.484-7.635v15.241h4.186V113.3a8.426,8.426,0,0,1,.206-1.916,4.2,4.2,0,0,1,.693-1.548,3.37,3.37,0,0,1,1.282-1.047,4.46,4.46,0,0,1,1.946-.383,7.474,7.474,0,0,1,.8.044q.413.044.708.1v-3.891a3.264,3.264,0,0,0-.914-.147,5,5,0,0,0-1.533.236,5.617,5.617,0,0,0-1.386.663,5.215,5.215,0,0,0-1.15,1.032,5.148,5.148,0,0,0-.8,1.312h-.059v-2.83Zm11.291,4.687a4.863,4.863,0,0,1,.737-2.447,5.019,5.019,0,0,1,1.651-1.562,7.194,7.194,0,0,1,2.255-.84,12.822,12.822,0,0,1,2.521-.251,17.083,17.083,0,0,1,2.329.162,7.124,7.124,0,0,1,2.152.634,4.24,4.24,0,0,1,1.592,1.312,3.666,3.666,0,0,1,.619,2.226v7.93a15.927,15.927,0,0,0,.118,1.975,3.571,3.571,0,0,0,.413,1.415H126.54a6.007,6.007,0,0,1-.192-.722,6.287,6.287,0,0,1-.1-.752,5.455,5.455,0,0,1-2.358,1.445,9.466,9.466,0,0,1-2.771.413,7.487,7.487,0,0,1-2.034-.265,4.659,4.659,0,0,1-1.651-.825,3.843,3.843,0,0,1-1.106-1.415,4.785,4.785,0,0,1-.4-2.034,4.444,4.444,0,0,1,.457-2.137,3.821,3.821,0,0,1,1.179-1.341,5.283,5.283,0,0,1,1.651-.752,17.63,17.63,0,0,1,1.872-.4q.943-.147,1.857-.236a11.166,11.166,0,0,0,1.621-.265,2.826,2.826,0,0,0,1.12-.516,1.132,1.132,0,0,0,.383-.988,2.221,2.221,0,0,0-.221-1.076,1.626,1.626,0,0,0-.59-.619,2.32,2.32,0,0,0-.855-.295,7,7,0,0,0-1.047-.074,3.177,3.177,0,0,0-1.946.531,2.369,2.369,0,0,0-.825,1.769Zm9.67,3.1a1.878,1.878,0,0,1-.663.368,6.778,6.778,0,0,1-.855.221q-.457.088-.958.147t-1,.147a7.556,7.556,0,0,0-.929.236,2.746,2.746,0,0,0-.8.4,1.892,1.892,0,0,0-.545.634,2.039,2.039,0,0,0-.206.973,1.969,1.969,0,0,0,.206.943,1.582,1.582,0,0,0,.56.6,2.364,2.364,0,0,0,.825.31,5.269,5.269,0,0,0,.973.088,3.7,3.7,0,0,0,1.916-.413,2.761,2.761,0,0,0,1-.988,3.159,3.159,0,0,0,.4-1.164,8,8,0,0,0,.074-.943Zm12.736-7.783V100.36h-4.186v4.569h-2.535v2.8h2.535v8.992a3.9,3.9,0,0,0,.383,1.857,2.731,2.731,0,0,0,1.047,1.091,4.345,4.345,0,0,0,1.533.516,12.223,12.223,0,0,0,1.843.133q.619,0,1.268-.029a9.963,9.963,0,0,0,1.179-.118v-3.243a5.865,5.865,0,0,1-.619.088q-.324.029-.678.029a1.417,1.417,0,0,1-1.769-1.769V107.73h3.066v-2.8Zm9.375-2.358V99.122h-4.186v3.449Zm-4.186,2.358v15.241h4.186V104.929Zm15.919,15.241,5.159-15.241h-4.157L157.7,115.336h-.059l-3.213-10.407h-4.393l5.218,15.241Zm17.158-9.257h-6.81a4.807,4.807,0,0,1,.192-1,3.077,3.077,0,0,1,.56-1.061,3.171,3.171,0,0,1,1.061-.84,3.642,3.642,0,0,1,1.666-.339,2.94,2.94,0,0,1,2.285.825A4.838,4.838,0,0,1,177.069,110.914Zm-6.81,2.653h11a10.76,10.76,0,0,0-.295-3.39,8.3,8.3,0,0,0-1.341-2.889,6.766,6.766,0,0,0-2.373-2.019,7.247,7.247,0,0,0-3.39-.752,7.894,7.894,0,0,0-3.169.619,7.368,7.368,0,0,0-4.054,4.245,8.89,8.89,0,0,0-.56,3.184,9.28,9.28,0,0,0,.545,3.243,7.364,7.364,0,0,0,1.548,2.535,6.743,6.743,0,0,0,2.447,1.636,8.705,8.705,0,0,0,3.243.575,7.984,7.984,0,0,0,4.422-1.179,7,7,0,0,0,2.712-3.921h-3.685a2.629,2.629,0,0,1-1.12,1.341,4.292,4.292,0,0,1-4.894-.28A4.232,4.232,0,0,1,170.259,113.567Zm13.649,2.064v4.54h4.628v-4.54Z" transform="translate(-0.6 -26.6)"/>
</svg>
